<svg width="30" height="30" viewBox="0 0 30 30" fill="none" xmlns="http://www.w3.org/2000/svg">
<path fill-rule="evenodd" clip-rule="evenodd" d="M27.6588 8.00281L28.1063 8.7903L28.4858 9.62377L28.793 10.5002L29.0232 11.4168L29.1798 12.4504L29.2309 13.4747L29.1803 14.4839L29.0322 15.472L28.7904 16.4328L28.459 17.3606L28.0419 18.2492L27.5431 19.0925L26.9665 19.8848L26.3161 20.6199L25.5961 21.2918L24.81 21.8946L23.9623 22.4221L23.0566 22.8685L22.0971 23.2277L23.0239 22.7257L23.8852 22.1371L24.6764 21.4688L25.393 20.7277L26.0304 19.9209L26.5841 19.0552L27.0492 18.1376L27.4214 17.1749L27.696 16.1741L27.8685 15.1422L27.9342 14.0859L27.8886 13.0124L27.727 11.9284L27.4694 10.9219L27.5002 11.2362L27.5225 11.5528L27.5361 11.8718L27.5407 12.1931L27.4948 13.2152L27.3598 14.2116L27.1396 15.1783L26.8381 16.1114L26.4595 17.0069L26.0075 17.8608L25.4863 18.6692L24.8997 19.4281L24.2517 20.1335L23.5462 20.7815L22.7874 21.3682L21.9791 21.8895L21.1253 22.3414L20.2298 22.7201L19.2968 23.0215L18.3302 23.2417L17.334 23.3767L16.3121 23.4226L15.2058 23.3688L14.1301 23.2107L13.09 22.9534L12.0906 22.6019L11.1368 22.1613L10.2338 21.6366L9.38647 21.033L10.0311 21.9157L10.7567 22.7304L11.5573 23.4713L12.4271 24.1324L13.3602 24.7079L14.3508 25.1919L15.3932 25.5786L16.4812 25.8621L17.6092 26.0364L18.7714 26.0959L19.7934 26.05L20.7898 25.9149L21.7565 25.6948L22.6895 25.3934L23.5849 25.0148L24.4388 24.5629L25.2471 24.0417L26.0059 23.4551L26.7113 22.8071L27.3592 22.1018L27.9458 21.3429L28.467 20.5346L28.9189 19.6808L29.2975 18.7853L29.5989 17.8522L29.8191 16.8856L29.9541 15.8892L30 14.8672L29.9473 13.7724L29.7926 12.7077L29.5407 11.6778L29.1964 10.6875L28.7648 9.74169L28.2506 8.84515L27.6588 8.00281Z" fill="url(#paint0_linear_598_4021)"/>
<path fill-rule="evenodd" clip-rule="evenodd" d="M8.96741 9.38562L8.08461 10.0303L7.26982 10.7558L6.52895 11.5565L5.86784 12.4262L5.29236 13.3594L4.8084 14.3501L4.42177 15.3923L4.13836 16.4805L3.96401 17.6084L3.9046 18.7706L3.95048 19.7927L4.08549 20.7891L4.30567 21.7558L4.60706 22.6889L4.98566 23.5844L5.43756 24.4383L5.95878 25.2467L6.54533 26.0056L7.19329 26.711L7.89867 27.359L8.65746 27.9457L9.46576 28.4669L10.3196 28.9189L11.2151 29.2976L12.1481 29.599L13.1148 29.8192L14.1111 29.9542L15.1332 30.0001L16.2276 29.9474L17.2923 29.7926L18.3221 29.5406L19.3124 29.1962L20.2582 28.7644L21.1546 28.25L21.9967 27.6581L21.2096 28.1056L20.3765 28.4852L19.5002 28.7923L18.5835 29.0226L17.5498 29.1793L16.5254 29.2305L15.5161 29.1801L14.5281 29.0319L13.5672 28.7902L12.6395 28.4587L11.7509 28.0416L10.9076 27.5427L10.1154 26.966L9.38049 26.3156L8.70862 25.5955L8.10591 24.8094L7.57836 23.9616L7.13199 23.0559L6.77275 22.0964L7.27474 23.0233L7.86331 23.8846L8.53156 24.676L9.27243 25.3926L10.0792 26.03L10.9448 26.5835L11.8624 27.0487L12.825 27.4209L13.8258 27.6954L14.8577 27.8679L15.9138 27.9335L16.9873 27.8879L18.0713 27.7263L19.0784 27.4687L18.7641 27.4997L18.4471 27.522L18.1279 27.5355L17.8064 27.54L16.7845 27.4941L15.7883 27.3591L14.8216 27.1389L13.8886 26.8376L12.9932 26.4589L12.1393 26.007L11.331 25.4858L10.5722 24.8992L9.86675 24.2513L9.21881 23.5459L8.63222 22.7871L8.11092 21.9788L7.659 21.1249L7.28034 20.2295L6.97892 19.2964L6.75871 18.3297L6.62369 17.3333L6.57778 16.3112L6.63161 15.205L6.78972 14.1293L7.04706 13.0892L7.39855 12.0898L7.83916 11.136L8.3638 10.233L8.96741 9.38562Z" fill="url(#paint1_linear_598_4021)"/>
<path fill-rule="evenodd" clip-rule="evenodd" d="M11.2287 3.90381L10.2066 3.94969L9.21043 4.08473L8.24383 4.30493L7.31081 4.60635L6.4154 4.98503L5.56157 5.43697L4.75323 5.95822L3.99437 6.54483L3.28898 7.19281L2.641 7.89825L2.0544 8.65704L1.53315 9.46542L1.08121 10.3193L0.702539 11.2147L0.401128 12.1476L0.180926 13.1142L0.0458772 14.1105L0 15.1326L0.0526756 16.2273L0.207505 17.2921L0.459531 18.3221L0.803904 19.3125L1.23571 20.2584L1.75004 21.1547L2.34203 21.9969L1.8945 21.2094L1.51495 20.3762L1.20782 19.5001L0.977587 18.5836L0.820812 17.55L0.769603 16.5255L0.820022 15.5162L0.968072 14.528L1.20979 13.567L1.54118 12.6392L1.95827 11.7506L2.4571 10.9072L3.03371 10.1148L3.68408 9.37981L4.4043 8.70786L5.19033 8.10515L6.03822 7.57752L6.94401 7.13117L7.9037 6.77197L6.97675 7.27398L6.11528 7.86264L5.3239 8.53089L4.60717 9.27184L3.9697 10.0787L3.41605 10.9444L2.95085 11.862L2.57862 12.8248L2.30398 13.8256L2.1315 14.8575L2.06579 15.9137L2.11141 16.9872L2.27295 18.0712L2.53142 19.0777L2.50028 18.7635L2.47769 18.4469L2.46394 18.1279L2.45929 17.8066L2.50517 16.7845L2.64022 15.7882L2.86042 14.8214L3.16186 13.8884L3.54053 12.9929L3.99247 12.1391L4.51375 11.3308L5.10037 10.5719L5.74839 9.86657L6.45382 9.21863L7.2127 8.63204L8.02113 8.11083L8.87499 7.65894L9.77046 7.2803L10.7036 6.97893L11.6703 6.75875L12.6667 6.62374L13.6888 6.57784L14.795 6.63162L15.8707 6.7896L16.9108 7.04678L17.9102 7.39811L18.864 7.83854L19.767 8.36304L20.6143 8.96666L19.9696 8.08394L19.2441 7.26925L18.4435 6.52841L17.5737 5.86729L16.6405 5.29179L15.6498 4.80776L14.6073 4.42108L13.5191 4.13761L12.391 3.96324L11.2287 3.90381Z" fill="#EE4D4D"/>
<path fill-rule="evenodd" clip-rule="evenodd" d="M14.867 0L13.7726 0.0526559L12.708 0.207371L11.6782 0.459294L10.6879 0.80351L9.74208 1.23518L8.8457 1.74936L8.0036 2.34122L8.79085 1.89368L9.62398 1.51411L10.5002 1.20699L11.4167 0.976741L12.4504 0.820138L13.4749 0.769061L14.4842 0.819587L15.4723 0.967727L16.4333 1.20952L17.361 1.54095L18.2497 1.95807L19.0931 2.45692L19.8853 3.0335L20.6204 3.68385L21.2922 4.40399L21.895 5.18993L22.4225 6.03772L22.8689 6.94339L23.2281 7.90294L22.7259 6.9762L22.1373 6.11492L21.469 5.32368L20.728 4.60706L19.9212 3.96967L19.0555 3.41608L18.1379 2.95086L17.1752 2.57866L16.1745 2.30403L15.1426 2.13154L14.0865 2.06581L13.0129 2.11143L11.929 2.27297L10.9218 2.53061L11.2362 2.49973L11.5532 2.4774L11.8724 2.46385L12.1938 2.45931L13.2159 2.50519L14.2123 2.6402L15.179 2.86038L16.112 3.16177L17.0074 3.54038L17.8613 3.99228L18.6696 4.51351L19.4284 5.10006L20.1338 5.74802L20.7817 6.45337L21.3683 7.21221L21.8895 8.02054L22.3414 8.8744L22.72 9.76987L23.0214 10.7029L23.2416 11.6696L23.3766 12.666L23.4225 13.688L23.3687 14.7943L23.2107 15.87L22.9535 16.9101L22.6022 17.9095L22.1618 18.8633L21.6372 19.7663L21.0336 20.6137L21.9162 19.969L22.731 19.2434L23.4717 18.4428L24.1329 17.573L24.7084 16.6399L25.1925 15.6492L25.5791 14.6069L25.8627 13.5189L26.037 12.3908L26.0965 11.2287L26.0506 10.2066L25.9156 9.21025L25.6953 8.24356L25.3939 7.31053L25.0152 6.41511L24.5633 5.56124L24.0421 4.7529L23.4554 3.99405L22.8074 3.28871L22.1019 2.64075L21.3431 2.05419L20.5347 1.53297L19.6807 1.08107L18.7853 0.702458L17.8522 0.401062L16.8855 0.180883L15.8891 0.0458796L14.867 0Z" fill="#A41414"/>
<defs>
<linearGradient id="paint0_linear_598_4021" x1="19.6932" y1="8.00281" x2="19.6932" y2="26.0959" gradientUnits="userSpaceOnUse">
<stop stop-color="#97A2B1"/>
<stop offset="1" stop-color="#64748B"/>
</linearGradient>
<linearGradient id="paint1_linear_598_4021" x1="12.9506" y1="9.38562" x2="12.9506" y2="30.0001" gradientUnits="userSpaceOnUse">
<stop stop-color="#97A2B1"/>
<stop offset="1" stop-color="#64748B"/>
</linearGradient>
</defs>
</svg>
